<?xml version="1.0" encoding="iso-8859-1"?>
<!-- Generator: Adobe Illustrator 19.0.0, SVG Export Plug-In . SVG Version: 6.00 Build 0)  -->
<svg version="1.1" id="Layer_1" xmlns="http://www.w3.org/2000/svg" xmlns:xlink="http://www.w3.org/1999/xlink" x="0px" y="0px"
	 viewBox="0 0 511.999 511.999" style="enable-background:new 0 0 511.999 511.999;" xml:space="preserve">
<path style="fill:#707487;" d="M464,488c0,8.8-7.2,16-16,16h-384c-8.8,0-16-7.2-16-16v-16c0-8.8,7.2-16,16-16h384
	c8.8,0,16,7.2,16,16V488z"/>
<path style="fill:#C7CFE2;" d="M304,352L304,352c0-0.007,0-0.013,0-0.02V80.06C304,40.262,271.737,8,231.939,8h-39.94
	c-26.51,0-48,21.49-48,48l0,0c0,26.51,21.49,48,48,48h-0.07c8.876,0,16.07,7.195,16.07,16.07v231.91c0,0.007,0.001,0.013,0.001,0.02
	h-0.001c-8.8,0-16,7.2-16,16s7.2,16,16,16h96c8.8,0,16-7.2,16-16S312.799,352,304,352z"/>
<g>
	<path style="fill:#464655;" d="M207.999,280h-15.994c-4.422,0-8.006-3.585-8.006-8.006V240c0-4.422,3.585-8.006,8.006-8.006h15.994
		V280z"/>
	<path style="fill:#464655;" d="M207.999,200.006h-15.994c-4.422,0-8.006-3.585-8.006-8.006v-31.994
		c0-4.422,3.585-8.006,8.006-8.006h15.994V200.006z"/>
</g>
<rect x="239.999" y="386" style="fill:#5B5D6E;" width="32" height="69"/>
<path d="M448,448H280v-56h24c13.234,0,24-10.766,24-24c0-10.43-6.688-19.327-16-22.629V80.06C312,35.915,276.084,0,231.939,0h-39.94
	c-30.878,0-56,25.122-56,56c0,30.841,25.06,55.938,55.886,56c0.015,0,0.029,0,0.044,0c4.45,0,8.07,3.62,8.07,8.07V144h-7.994
	c-8.826,0-16.006,7.181-16.006,16.006V192c0,8.826,7.181,16.006,16.006,16.006h7.994v15.987h-7.994
	c-8.826,0-16.006,7.18-16.006,16.006v31.994c0,8.826,7.181,16.006,16.006,16.006h7.994v57.371c-9.313,3.302-16,12.199-16,22.629
	c0,13.234,10.766,24,24,24h24v56h-168c-13.234,0-24,10.766-24,24v16c0,13.234,10.766,24,24,24h384c13.234,0,24-10.766,24-24v-16
	C472,458.766,461.234,448,448,448z M191.999,192l0.006-32h7.994v32.003L191.999,192z M191.999,271.994l0.006-32h7.994v32.003
	L191.999,271.994z M199.999,368c0-4.411,3.589-8,8.001-8h47.999c4.418,0,8-3.582,8-8s-3.582-8-8-8h-40V120.07
	c0-13.216-10.707-23.979-23.903-24.07c-0.032,0-0.065,0-0.097,0c-22.056,0-40-17.944-40-40s17.944-40,40-40h39.94
	C267.263,16,296,44.737,296,80.06V88h-24c-4.418,0-8,3.581-8,8s3.582,8,8,8h24v16h-24c-4.418,0-8,3.581-8,8c0,4.419,3.582,8,8,8h24
	v16h-24c-4.418,0-8,3.581-8,8s3.582,8,8,8h24v16h-24c-4.418,0-8,3.581-8,8s3.582,8,8,8h24v16h-24c-4.418,0-8,3.581-8,8s3.582,8,8,8
	h24v16h-24c-4.418,0-8,3.581-8,8c0,4.418,3.582,8,8,8h24v16h-24c-4.418,0-8,3.582-8,8s3.582,8,8,8h24v16h-24c-4.418,0-8,3.582-8,8
	s3.582,8,8,8h24v16h-8c-4.418,0-8,3.582-8,8s3.582,8,8,8h16c4.411,0,8,3.589,8,8s-3.589,8-8,8h-96
	C203.589,376,199.999,372.411,199.999,368z M247.999,392h16v56h-16V392z M456,488c0,4.411-3.589,8-8,8h-384c-4.411,0-8-3.589-8-8
	v-16c0-4.411,3.589-8,8-8h384c4.411,0,8,3.589,8,8V488z"/>
<g>
</g>
<g>
</g>
<g>
</g>
<g>
</g>
<g>
</g>
<g>
</g>
<g>
</g>
<g>
</g>
<g>
</g>
<g>
</g>
<g>
</g>
<g>
</g>
<g>
</g>
<g>
</g>
<g>
</g>
</svg>
